<?xml version="1.0" encoding="UTF-8"?>
<svg xmlns="http://www.w3.org/2000/svg" version="1.1" viewBox="0 0 134.22 133.87">
  <!-- Generator: Adobe Illustrator 30.4.0, SVG Export Plug-In . SVG Version: 2.1.4 Build 226)  -->
  <defs>
    <style>
      .st0 {
        fill: #276889;
      }

      .st1 {
        isolation: isolate;
      }

      .st2 {
        fill: #e5ae37;
      }

      .st2, .st3, .st4 {
        mix-blend-mode: multiply;
      }

      .st5 {
        fill: #bbbbba;
        opacity: .59;
      }

      .st3 {
        fill: #db5d44;
      }

      .st4 {
        fill: #1393a0;
      }

      .st6 {
        fill: #f5f5f5;
      }

      .st7 {
        fill: none;
        stroke: #e3e2e2;
        stroke-linecap: round;
        stroke-miterlimit: 10;
      }
    </style>
  </defs>
  <g class="st1">
    <g id="_レイヤー_1" data-name="レイヤー_1">
      <g>
        <path class="st6" d="M124.62,88.24c-3.25,4.02-8.32,8.95-16.06,15.2-13.94,11.26-20.8,19.24-25.36,23.5-2.84,2.69-4.8,3.89-7.01,3.56-.23-.03-.47-.09-.72-.16-6.16-1.81-13.4-8.19-13.4-8.19l-.47-15.86-2.83-94.3c7.64-7.83,13.49-10.32,19.81-2.63,6.34,7.69,47.04,55.63,49.75,61.96,1.82,4.25,2.92,8.68-3.71,16.91Z"/>
        <path class="st5" d="M126.95,77.36c0,1.85-.65,6.13-2.33,10.88-3.25,4.02-8.32,8.95-16.06,15.2-13.94,11.26-20.8,19.24-25.36,23.5-2.34,1.11-4.84,2.4-7.01,3.56-.23-.03-.47-.09-.72-.16-6.16-1.81-13.4-8.19-13.4-8.19l2.21-3.01,46.99-47.08s15.69,1.77,15.69,5.3Z"/>
        <path class="st0" d="M84.42,12s49.79,51.8,49.8,65.36c0,10.74-48.86,54.78-56.69,56.35-7.83,1.57-15.92-8.86-15.92-8.86l2.73-2.7s5.51,2.78,9.51,5.6c3.99,2.82,5.56-.13,17.15-11.03,11.59-10.9,29.15-28.59,32.91-33.91,3.76-5.32,2.17-11.75-3.78-18.33-5.95-6.58-43.07-52.93-46.28-56.07-3.21-3.13-10.62,4.33-10.62,4.33l-3.29-4.06s7.25-6.53,12.26-6.53,9.83,6.99,12.22,9.84Z"/>
        <polygon class="st3" points="11.92 48.59 58.2 6.55 111.26 72.06 61.61 124.86 11.92 48.59"/>
        <line class="st7" x1="76.7" y1="119.14" x2="108.56" y2="86.68"/>
        <path class="st2" d="M10.57,47.02C28.99,25.91,26.76,9.08,25.78,0c0,0,51.88,50.6,61.61,68.43,9.73,17.83-18.82,48.31-25.78,56.43L10.57,47.02Z"/>
        <path class="st4" d="M8.6,45.72c6.16-11.67,0-33.72,0-33.72,0,0,56.42,62.26,63.56,80.09,7.13,17.83-10.54,32.76-10.54,32.76L8.6,45.72Z"/>
        <path class="st0" d="M4.28,52.97C8.13,47.41,0,29.87,0,29.87c0,0,55.62,68.03,61.61,77.44,5.99,9.41,0,17.54,0,17.54L4.28,52.97Z"/>
      </g>
    </g>
  </g>
</svg>